# xmcd
#
# Track frame offsets: 
#        150
#        13147
#        25899
#        41671
#        58590
#        74332
#        91822
#        110804
#        128788
#        154485
#        169362
#        187674
#        202469
#        212478
#        237955
#
# Disc length: 3441 seconds
#
# Revision: 3
# Processed by: cddbd v1.5PL3 Copyright (c) Steve Scherf et al.
# Submitted via: ExactAudioCopy v0.90b4
#
DISCID=da0d6f0f
DTITLE=Various Artist - Rounder Banjo Extravaganza
DYEAR=1992
DGENRE=Bluegrass
TTITLE0=Tom Adams, Tony Furtado, Tony Trischka - Banjo Signal
TTITLE1=Tom Adams - Knoxlyn Breakdown
TTITLE2=Tom Adams - Santa Cruz
TTITLE3=Tom Adams - Read Line To Shady Grove
TTITLE4=Barry Mitterhoff, Tony Furtado - Chorei
TTITLE5=Tony Furtado - Tyson's Dream
TTITLE6=Tony Furtado - Perhaps
TTITLE7=Tony Furtado - Celtic Medley
TTITLE8=David Grier - Dead End
TTITLE9=Mark Schatz - All Full Up
TTITLE10=Mark Schatz - Go Home With The Girls In The Morning
TTITLE11=Tony Trischka - Silver Jenny
TTITLE12=Tony Trischka - Karen's Quickstep
TTITLE13=Tony Trischka - Blues For Topo Gigio
TTITLE14=Tom Adams, Tony Furtado, Tony Trischka - Earl's Farewell Blue
TTITLE14=s
EXTD=YEAR: 1992
EXTT0=
EXTT1=
EXTT2=
EXTT3=
EXTT4=
EXTT5=
EXTT6=
EXTT7=
EXTT8=
EXTT9=
EXTT10=
EXTT11=
EXTT12=
EXTT13=
EXTT14=
PLAYORDER=
